Coordinates
version=1
nRows=32
nColumns=34
inDegrees=no

Units are S.I. units (second, meters, Newtons, ...)
If the header above contains a line with 'inDegrees', this indicates whether rotational values are in degrees (yes) or radians (no).

endheader
time	pelvis_tilt	pelvis_list	pelvis_rotation	pelvis_tx	pelvis_ty	pelvis_tz	hip_flexion_r	hip_adduction_r	hip_rotation_r	knee_angle_r	ankle_angle_r	subtalar_angle_r	mtp_angle_r	hip_flexion_l	hip_adduction_l	hip_rotation_l	knee_angle_l	ankle_angle_l	subtalar_angle_l	mtp_angle_l	lumbar_extension	lumbar_bending	lumbar_rotation	arm_flex_r	arm_add_r	arm_rot_r	elbow_flex_r	pro_sup_r	arm_flex_l	arm_add_l	arm_rot_l	elbow_flex_l	pro_sup_l
3.2	-0.370794	-0.0767702	-0.036271	-0.271061	0.800011	-0.575949	1.11832	-0.192448	-0.168811	1.12852	0.434499	-0.0216741	-0.0952488	1.20126	-0.340527	-0.0292114	1.18777	0.460744	0.0942848	-0.0952489	-0.314777	0.0683804	-0.00437638	0.801493	-0.478007	0.105781	2.24076	1.46538	0.690253	-0.419044	0.0535903	2.2349	1.47297
3.21	-0.378616	-0.0787102	-0.0380819	-0.274264	0.791953	-0.576034	1.1472	-0.1961	-0.168424	1.1571	0.443817	-0.0172082	-0.0952488	1.23303	-0.344143	-0.0207536	1.21653	0.468279	0.0958836	-0.0952489	-0.322251	0.0710105	0.00115614	0.830306	-0.48135	0.104271	2.24613	1.46386	0.717014	-0.419428	0.0535004	2.24326	1.47106
3.22	-0.385676	-0.0807139	-0.0395811	-0.27727	0.783973	-0.576157	1.17474	-0.2	-0.168141	1.18503	0.452818	-0.0126806	-0.0952488	1.26363	-0.347046	-0.0118903	1.24463	0.475504	0.0970385	-0.0952489	-0.329957	0.0738218	0.00673835	0.858115	-0.484744	0.102754	2.25107	1.46218	0.742834	-0.418904	0.0533526	2.25133	1.46882
3.23	-0.392024	-0.0827882	-0.0407488	-0.280077	0.776092	-0.576317	1.20094	-0.204129	-0.167954	1.21225	0.461504	-0.00812393	-0.0952488	1.29305	-0.349181	-0.00262423	1.27201	0.482411	0.0977138	-0.0952489	-0.337811	0.0768151	0.0122463	0.884815	-0.488068	0.101267	2.25552	1.46054	0.767559	-0.417508	0.0530678	2.25909	1.46663
3.24	-0.397708	-0.0849598	-0.0416197	-0.28269	0.768328	-0.576504	1.22582	-0.208382	-0.167835	1.2387	0.46985	-0.00362812	-0.0952488	1.32129	-0.35059	0.00701833	1.29863	0.489004	0.0979382	-0.0952489	-0.345747	0.0799862	0.017601	0.910321	-0.491188	0.0998574	2.25945	1.45906	0.791091	-0.4153	0.0525594	2.26654	1.46485
3.25	-0.402781	-0.0872608	-0.0422622	-0.285114	0.760698	-0.576703	1.24941	-0.212606	-0.167741	1.26435	0.477817	0.000673226	-0.0952488	1.34841	-0.351376	0.016994	1.32447	0.495292	0.0977855	-0.0952489	-0.353715	0.0833185	0.0227501	0.93458	-0.493967	0.0985864	2.26287	1.4578	0.81339	-0.412367	0.0517425	2.2737	1.46373
3.26	-0.407292	-0.0897079	-0.0427546	-0.28736	0.753218	-0.576899	1.27176	-0.216644	-0.167619	1.28916	0.48537	0.00463029	-0.0952488	1.37441	-0.351673	0.0272399	1.34951	0.501272	0.0973523	-0.0952489	-0.361681	0.0867717	0.0276467	0.957586	-0.496272	0.0975256	2.26581	1.45673	0.834488	-0.408821	0.050543	2.28057	1.46336
3.27	-0.41128	-0.0922895	-0.0431654	-0.289439	0.745902	-0.577077	1.29294	-0.220371	-0.167408	1.31312	0.492489	0.00810639	-0.0952488	1.39935	-0.351605	0.03767	1.37376	0.506936	0.0967421	-0.0952489	-0.369642	0.0902795	0.032236	0.979387	-0.497985	0.0967498	2.26833	1.45578	0.854483	-0.404805	0.0489085	2.28718	1.46366
3.28	-0.414769	-0.0949634	-0.0435421	-0.291366	0.738763	-0.577228	1.31304	-0.223719	-0.167045	1.33624	0.499177	0.0110031	-0.0952487	1.42322	-0.351276	0.0481747	1.39719	0.512277	0.0960595	-0.0952488	-0.377626	0.0937559	0.0364585	1.00009	-0.499019	0.0963234	2.27048	1.45485	0.873526	-0.400487	0.0468221	2.29354	1.4645
3.29	-0.417782	-0.0976672	-0.043913	-0.293157	0.731814	-0.577347	1.33211	-0.22667	-0.166479	1.35855	0.505454	0.0132787	-0.0952487	1.44604	-0.350772	0.0586265	1.41979	0.517297	0.0954103	-0.0952488	-0.385667	0.0971103	0.0402668	1.01982	-0.499339	0.0962785	2.27237	1.4539	0.891787	-0.396037	0.0443171	2.29968	1.46567
3.3	-0.420364	-0.100332	-0.0442964	-0.294825	0.725062	-0.577432	1.35027	-0.229245	-0.165676	1.38005	0.511352	0.0149505	-0.0952487	1.46781	-0.350168	0.068891	1.44156	0.522014	0.0948965	-0.0952488	-0.393779	0.10026	0.0436488	1.0387	-0.498983	0.0965912	2.27411	1.45292	0.909424	-0.391598	0.0414895	2.30558	1.46695
3.31	-0.422598	-0.102892	-0.0447116	-0.296386	0.71851	-0.577486	1.36761	-0.231479	-0.164619	1.40078	0.516907	0.0160801	-0.0952487	1.4886	-0.349534	0.078836	1.46248	0.526464	0.0946074	-0.0952488	-0.401925	0.103133	0.0466457	1.05682	-0.498067	0.0971643	2.27583	1.452	0.926553	-0.387271	0.0385028	2.31126	1.46819
3.32	-0.424596	-0.105289	-0.0451854	-0.297849	0.712156	-0.577509	1.38427	-0.233405	-0.163304	1.42072	0.522155	0.0167518	-0.0952487	1.50848	-0.348949	0.0883396	1.48254	0.530689	0.0946154	-0.0952488	-0.41002	0.105668	0.0493539	1.0742	-0.496779	0.0978297	2.27766	1.45133	0.943247	-0.383096	0.0355798	2.31669	1.46924
3.33	-0.426477	-0.107478	-0.0457492	-0.299226	0.705994	-0.577504	1.40037	-0.235052	-0.161732	1.43986	0.527126	0.0170578	-0.0952487	1.52754	-0.348492	0.097295	1.50176	0.534738	0.0949781	-0.0952488	-0.41796	0.107808	0.0519075	1.09083	-0.495345	0.0983766	2.27975	1.45104	0.959539	-0.379068	0.032977	2.32184	1.47003
3.34	-0.428338	-0.10942	-0.0464304	-0.300523	0.70002	-0.577473	1.41601	-0.236446	-0.159901	1.45822	0.531839	0.0170931	-0.0952487	1.54588	-0.348235	0.105611	1.52014	0.538656	0.095736	-0.0952488	-0.425643	0.109506	0.0544428	1.10667	-0.49399	0.0985967	2.28216	1.4512	0.975429	-0.375162	0.0309433	2.32665	1.4706
3.35	-0.430244	-0.111072	-0.0472409	-0.301744	0.694224	-0.577419	1.43127	-0.237626	-0.1578	1.4758	0.536305	0.0169533	-0.0952487	1.56353	-0.348221	0.113212	1.53771	0.542483	0.0969052	-0.0952488	-0.432987	0.110727	0.0570578	1.12169	-0.492894	0.0983295	2.28494	1.45176	0.990882	-0.371366	0.0296751	2.33105	1.471
3.36	-0.43223	-0.112393	-0.0481695	-0.302891	0.688598	-0.577351	1.4462	-0.238651	-0.155402	1.49264	0.540524	0.0167319	-0.0952487	1.58054	-0.348454	0.120038	1.55453	0.546249	0.098472	-0.0952488	-0.439916	0.111451	0.0597846	1.1359	-0.492164	0.0974937	2.28806	1.45257	1.00583	-0.367707	0.0292859	2.33496	1.47134
3.37	-0.434317	-0.113341	-0.0491784	-0.303964	0.683132	-0.577279	1.46088	-0.239603	-0.152671	1.50879	0.544498	0.0165152	-0.0952487	1.59691	-0.348893	0.126052	1.57064	0.549967	0.100393	-0.0952488	-0.446362	0.111683	0.062582	1.14932	-0.49183	0.0961034	2.29144	1.4535	1.02018	-0.364261	0.0297981	2.33836	1.47169
3.38	-0.436502	-0.113887	-0.0502063	-0.304962	0.677815	-0.577213	1.47535	-0.240573	-0.149576	1.52434	0.548229	0.016373	-0.0952487	1.61269	-0.349457	0.131252	1.58609	0.553635	0.102595	-0.0952488	-0.45227	0.111463	0.0653456	1.16201	-0.491864	0.0942708	2.29496	1.45436	1.03382	-0.361153	0.0311538	2.34123	1.47207
3.39	-0.43875	-0.114031	-0.0511769	-0.305887	0.672639	-0.577165	1.48962	-0.241645	-0.146099	1.53934	0.551729	0.0163495	-0.0952487	1.62787	-0.350046	0.135673	1.60095	0.557233	0.104983	-0.0952488	-0.457631	0.110868	0.0679342	1.17409	-0.49219	0.0921921	2.29844	1.45505	1.04669	-0.358553	0.0332352	2.34357	1.47245
3.4	-0.440984	-0.1138	-0.0520147	-0.306738	0.667602	-0.577149	1.50366	-0.242883	-0.142248	1.55389	0.555014	0.0164598	-0.0952486	1.64245	-0.350556	0.139388	1.61528	0.560729	0.107451	-0.0952488	-0.462503	0.110003	0.0702074	1.18571	-0.49272	0.0901122	2.30171	1.45551	1.05876	-0.356651	0.0358957	2.34539	1.47275
3.41	-0.443093	-0.113249	-0.0526628	-0.307518	0.662706	-0.577171	1.51738	-0.244312	-0.138062	1.56802	0.558104	0.0166966	-0.0952486	1.65636	-0.350912	0.142497	1.62912	0.564096	0.109899	-0.0952487	-0.467017	0.108979	0.0720656	1.19704	-0.493382	0.0882731	2.30464	1.45571	1.07006	-0.355622	0.0389947	2.34671	1.47289
3.42	-0.444957	-0.112447	-0.0530992	-0.308229	0.657961	-0.577236	1.53065	-0.245919	-0.133609	1.58177	0.561016	0.0170427	-0.0952486	1.66955	-0.351082	0.145114	1.64249	0.567311	0.112243	-0.0952487	-0.471344	0.10789	0.0734795	1.20826	-0.494153	0.086865	2.30711	1.45571	1.0807	-0.355591	0.0424256	2.34753	1.47278
3.43	-0.446478	-0.111477	-0.0533488	-0.308876	0.653379	-0.577341	1.54337	-0.247647	-0.128987	1.59512	0.563766	0.0174823	-0.0952486	1.68197	-0.351089	0.147364	1.65541	0.570367	0.114434	-0.0952487	-0.475652	0.106798	0.0745025	1.21944	-0.495053	0.0859973	2.30908	1.45556	1.09078	-0.356619	0.0461266	2.34787	1.47239
3.44	-0.447612	-0.11042	-0.0534807	-0.309464	0.64897	-0.577477	1.55543	-0.24941	-0.124315	1.60804	0.566369	0.0180111	-0.0952486	1.69359	-0.35101	0.149371	1.66786	0.573268	0.116461	-0.0952487	-0.480056	0.105734	0.0752589	1.23063	-0.496129	0.085694	2.31057	1.45532	1.10042	-0.358687	0.050075	2.34771	1.47171
3.45	-0.448381	-0.109351	-0.0535886	-0.309999	0.644741	-0.577631	1.5668	-0.251116	-0.119723	1.6205	0.568842	0.0186444	-0.0952486	1.70446	-0.350953	0.151244	1.67985	0.576027	0.118352	-0.0952487	-0.484585	0.104704	0.0759113	1.24174	-0.49744	0.0859063	2.31162	1.45503	1.10968	-0.361702	0.0542753	2.34704	1.47077
3.46	-0.448873	-0.10833	-0.0537611	-0.310485	0.640693	-0.577793	1.5775	-0.252702	-0.115328	1.63244	0.571207	0.0194178	-0.0952486	1.71468	-0.351021	0.153068	1.69135	0.578664	0.12017	-0.0952487	-0.489178	0.103703	0.076616	1.25265	-0.499031	0.086539	2.31231	1.45475	1.11857	-0.365511	0.0587367	2.34589	1.46959
3.47	-0.449212	-0.107401	-0.0540539	-0.310927	0.636821	-0.577954	1.58763	-0.254151	-0.111225	1.64383	0.573492	0.0203806	-0.0952486	1.72439	-0.35128	0.154895	1.70236	0.581195	0.121993	-0.0952487	-0.493707	0.102739	0.0774841	1.26321	-0.500924	0.087489	2.31268	1.45451	1.12706	-0.369926	0.0634437	2.34427	1.46819
3.48	-0.449521	-0.106594	-0.0544743	-0.31133	0.633119	-0.578112	1.59726	-0.255504	-0.107478	1.65466	0.575719	0.0215839	-0.0952486	1.73372	-0.351735	0.156747	1.71288	0.583633	0.123883	-0.0952487	-0.498028	0.101847	0.0785608	1.2733	-0.503112	0.0886825	2.31278	1.45431	1.13506	-0.37475	0.0683371	2.34223	1.46666
3.49	-0.449881	-0.105925	-0.0549833	-0.311694	0.629583	-0.578272	1.60646	-0.256842	-0.104117	1.66493	0.577911	0.023067	-0.0952486	1.74276	-0.352334	0.158624	1.7229	0.585987	0.125869	-0.0952487	-0.502031	0.101077	0.0798294	1.28281	-0.50558	0.0900926	2.3126	1.45411	1.1425	-0.379791	0.0733194	2.33979	1.46513
3.5	-0.450315	-0.105396	-0.0555164	-0.31202	0.626213	-0.578441	1.61524	-0.258253	-0.101136	1.67465	0.580082	0.0248404	-0.0952486	1.75151	-0.35299	0.160507	1.73243	0.588263	0.127938	-0.0952487	-0.505667	0.100472	0.0812363	1.29168	-0.508318	0.0917326	2.31214	1.45382	1.14931	-0.384863	0.0782753	2.33701	1.46374
3.51	-0.450784	-0.104994	-0.0560126	-0.312306	0.623014	-0.578624	1.62356	-0.259793	-0.0985059	1.68383	0.582237	0.0268711	-0.0952486	1.75989	-0.353619	0.162367	1.74146	0.590471	0.130043	-0.0952487	-0.508956	0.10005	0.0827235	1.29988	-0.511322	0.0936312	2.31142	1.45336	1.15546	-0.389795	0.0830886	2.33393	1.46267
